<?xml version="1.0" encoding="UTF-8" standalone="no"?>
<svg
   xmlns:dc="http://purl.org/dc/elements/1.1/"
   xmlns:cc="http://creativecommons.org/ns#"
   xmlns:rdf="http://www.w3.org/1999/02/22-rdf-syntax-ns#"
   xmlns:svg="http://www.w3.org/2000/svg"
   xmlns="http://www.w3.org/2000/svg"
   version="1.1"
   id="svg2"
   viewBox="0 0 99.999997 99.999997"
   height="100"
   width="100">
  <defs
     id="defs4" />
  <metadata
     id="metadata7">
    <rdf:RDF>
      <cc:Work
         rdf:about="">
        <dc:format>image/svg+xml</dc:format>
        <dc:type
           rdf:resource="http://purl.org/dc/dcmitype/StillImage" />
        <dc:title></dc:title>
      </cc:Work>
    </rdf:RDF>
  </metadata>
  <g
     transform="translate(0,-952.36223)"
     id="layer1">
    <g
       transform="translate(-225.69592,746.86426)"
       id="g4281">
      <g
         style="fill:#ffffff"
         transform="matrix(0.16445691,0,0,0.16445691,233.59487,213.39692)"
         id="g4285">
        <path
           style="fill:#ffffff"
           id="path4271"
           d="m 343.62,107.539 -154.633,23.79 0.04,173.344 c 0,0 -26.939,1.538 -32.179,3.164 -22.878,7.107 -36.696,28.092 -30.862,46.871 5.833,18.777 29.11,28.24 51.988,21.134 18.829,-5.849 37.016,-21.768 37.982,-37.455 0.017,0.009 0.025,0.011 0.025,0.011 l 0,-0.504 c 0.04,-0.903 0.045,-1.806 0,-2.709 l 0,-146.502 108.186,-14.349 -0.002,116.563 -17.129,-0.769 c -1.626,-0.081 -3.27,-0.087 -4.928,-0.011 l -0.516,-0.002 0.035,0.027 c -4.208,0.229 -8.484,0.968 -12.704,2.28 -22.879,7.106 -36.695,28.091 -30.863,46.868 5.834,18.779 29.111,28.24 51.989,21.134 19.034,-5.912 32.87,-21.442 33.565,-37.309 l 0.006,-215.576 z" />
        <path
           style="fill:#ffffff;stroke-width:12.95333385;stroke-miterlimit:4;stroke-dasharray:none"
           id="path4273"
           d="m 256,27.405 c 30.869,0 60.805,6.041 88.974,17.956 27.219,11.512 51.668,27.998 72.668,48.998 21,21 37.485,45.449 48.998,72.667 11.915,28.169 17.956,58.104 17.956,88.974 0,30.87 -6.041,60.805 -17.956,88.974 -11.513,27.219 -27.998,51.668 -48.998,72.668 -21,21 -45.449,37.485 -72.668,48.998 -28.169,11.915 -58.104,17.956 -88.974,17.956 -30.87,0 -60.804,-6.041 -88.974,-17.956 -27.218,-11.513 -51.667,-27.998 -72.667,-48.998 -21,-21 -37.486,-45.449 -48.998,-72.668 C 33.446,316.805 27.405,286.869 27.405,256 c 0,-30.869 6.041,-60.804 17.956,-88.974 11.512,-27.218 27.998,-51.667 48.998,-72.667 21,-21 45.449,-37.486 72.667,-48.998 C 195.196,33.446 225.131,27.405 256,27.405 m 0,-20 C 118.705,7.405 7.405,118.705 7.405,256 7.405,393.296 118.705,504.596 256,504.596 393.296,504.596 504.596,393.296 504.596,256 504.596,118.705 393.296,7.405 256,7.405 l 0,0 z" />
      </g>
    </g>
  </g>
</svg>
